<?xml version="1.0" encoding="UTF-8" standalone="no"?>
<!-- Created with Inkscape (http://www.inkscape.org/) -->

<svg
   xmlns:dc="http://purl.org/dc/elements/1.1/"
   xmlns:cc="http://creativecommons.org/ns#"
   xmlns:rdf="http://www.w3.org/1999/02/22-rdf-syntax-ns#"
   xmlns:svg="http://www.w3.org/2000/svg"
   xmlns="http://www.w3.org/2000/svg"
   xmlns:sodipodi="http://sodipodi.sourceforge.net/DTD/sodipodi-0.dtd"
   xmlns:inkscape="http://www.inkscape.org/namespaces/inkscape"
   width="113.17406mm"
   height="102.82773mm"
   viewBox="0 0 113.17406 102.82773"
   version="1.1"
   id="svg3806"
   inkscape:version="0.92.3 (2405546, 2018-03-11)"
   sodipodi:docname="vector_composition.svg">
  <sodipodi:namedview
     id="base"
     pagecolor="#ffffff"
     bordercolor="#666666"
     borderopacity="1.0"
     inkscape:pageopacity="0.0"
     inkscape:pageshadow="2"
     inkscape:zoom="1.979899"
     inkscape:cx="169.59165"
     inkscape:cy="140.38391"
     inkscape:document-units="mm"
     inkscape:current-layer="layer1"
     showgrid="false"
     inkscape:window-width="1720"
     inkscape:window-height="1413"
     inkscape:window-x="1920"
     inkscape:window-y="27"
     inkscape:window-maximized="0"
     fit-margin-top="0"
     fit-margin-left="0"
     fit-margin-right="0"
     fit-margin-bottom="0" />
  <defs
     id="defs3800">
    <marker
       inkscape:collect="always"
       inkscape:stockid="Arrow1Lstart"
       orient="auto"
       refY="0"
       refX="0"
       id="Arrow1Lstart-3-5"
       style="overflow:visible"
       inkscape:isstock="true">
      <path
         inkscape:connector-curvature="0"
         id="path4548-6-6"
         d="M 0,0 5,-5 -12.5,0 5,5 Z"
         style="fill:#1f77b4;fill-opacity:1;fill-rule:evenodd;stroke:#1f77b4;stroke-width:1.00000003pt;stroke-opacity:1"
         transform="matrix(0.8,0,0,0.8,10,0)" />
    </marker>
    <marker
       inkscape:collect="always"
       inkscape:stockid="Arrow1Lend"
       orient="auto"
       refY="0"
       refX="0"
       id="Arrow1Lend-7-2"
       style="overflow:visible"
       inkscape:isstock="true">
      <path
         inkscape:connector-curvature="0"
         id="path4551-5-9"
         d="M 0,0 5,-5 -12.5,0 5,5 Z"
         style="fill:#1f77b4;fill-opacity:1;fill-rule:evenodd;stroke:#1f77b4;stroke-width:1.00000003pt;stroke-opacity:1"
         transform="matrix(-0.8,0,0,-0.8,-10,0)" />
    </marker>
    <marker
       inkscape:collect="always"
       inkscape:stockid="Arrow1Lstart"
       orient="auto"
       refY="0"
       refX="0"
       id="Arrow1Lstart-3"
       style="overflow:visible"
       inkscape:isstock="true">
      <path
         inkscape:connector-curvature="0"
         id="path4548-6"
         d="M 0,0 5,-5 -12.5,0 5,5 Z"
         style="fill:#1f77b4;fill-opacity:1;fill-rule:evenodd;stroke:#1f77b4;stroke-width:1.00000003pt;stroke-opacity:1"
         transform="matrix(0.8,0,0,0.8,10,0)" />
    </marker>
    <marker
       inkscape:collect="always"
       inkscape:stockid="Arrow1Lend"
       orient="auto"
       refY="0"
       refX="0"
       id="Arrow1Lend-7"
       style="overflow:visible"
       inkscape:isstock="true">
      <path
         inkscape:connector-curvature="0"
         id="path4551-5"
         d="M 0,0 5,-5 -12.5,0 5,5 Z"
         style="fill:#1f77b4;fill-opacity:1;fill-rule:evenodd;stroke:#1f77b4;stroke-width:1.00000003pt;stroke-opacity:1"
         transform="matrix(-0.8,0,0,-0.8,-10,0)" />
    </marker>
    <marker
       inkscape:isstock="true"
       style="overflow:visible"
       id="marker5221"
       refX="0"
       refY="0"
       orient="auto"
       inkscape:stockid="Arrow1Lstart">
      <path
         inkscape:connector-curvature="0"
         transform="matrix(0.8,0,0,0.8,10,0)"
         style="fill:#ff7f0e;fill-opacity:1;fill-rule:evenodd;stroke:#ff7f0e;stroke-width:1.00000003pt;stroke-opacity:1"
         d="M 0,0 5,-5 -12.5,0 5,5 Z"
         id="path5219" />
    </marker>
    <marker
       inkscape:collect="always"
       inkscape:stockid="Arrow1Lstart"
       orient="auto"
       refY="0"
       refX="0"
       id="Arrow1Lstart"
       style="overflow:visible"
       inkscape:isstock="true">
      <path
         inkscape:connector-curvature="0"
         id="path4548"
         d="M 0,0 5,-5 -12.5,0 5,5 Z"
         style="fill:#1f77b4;fill-opacity:1;fill-rule:evenodd;stroke:#1f77b4;stroke-width:1.00000003pt;stroke-opacity:1"
         transform="matrix(0.8,0,0,0.8,10,0)" />
    </marker>
    <marker
       inkscape:collect="always"
       inkscape:stockid="Arrow1Lend"
       orient="auto"
       refY="0"
       refX="0"
       id="Arrow1Lend"
       style="overflow:visible"
       inkscape:isstock="true">
      <path
         inkscape:connector-curvature="0"
         id="path4551"
         d="M 0,0 5,-5 -12.5,0 5,5 Z"
         style="fill:#1f77b4;fill-opacity:1;fill-rule:evenodd;stroke:#1f77b4;stroke-width:1.00000003pt;stroke-opacity:1"
         transform="matrix(-0.8,0,0,-0.8,-10,0)" />
    </marker>
    <marker
       inkscape:isstock="true"
       style="overflow:visible"
       id="marker5221-7"
       refX="0"
       refY="0"
       orient="auto"
       inkscape:stockid="Arrow1Lstart">
      <path
         inkscape:connector-curvature="0"
         transform="matrix(0.8,0,0,0.8,10,0)"
         style="fill:#ff7f0e;fill-opacity:1;fill-rule:evenodd;stroke:#ff7f0e;stroke-width:1.00000003pt;stroke-opacity:1"
         d="M 0,0 5,-5 -12.5,0 5,5 Z"
         id="path5219-0" />
    </marker>
    <marker
       inkscape:isstock="true"
       style="overflow:visible"
       id="marker5221-7-3"
       refX="0"
       refY="0"
       orient="auto"
       inkscape:stockid="Arrow1Lstart">
      <path
         inkscape:connector-curvature="0"
         transform="matrix(0.8,0,0,0.8,10,0)"
         style="fill:#2ca02c;fill-opacity:1;fill-rule:evenodd;stroke:#2ca02c;stroke-width:1.00000003pt;stroke-opacity:1"
         d="M 0,0 5,-5 -12.5,0 5,5 Z"
         id="path5219-0-6" />
    </marker>
  </defs>
  <metadata
     id="metadata3803">
    <rdf:RDF>
      <cc:Work
         rdf:about="">
        <dc:format>image/svg+xml</dc:format>
        <dc:type
           rdf:resource="http://purl.org/dc/dcmitype/StillImage" />
        <dc:title />
      </cc:Work>
    </rdf:RDF>
  </metadata>
  <g
     id="layer1"
     inkscape:groupmode="layer"
     inkscape:label="Layer 1"
     transform="translate(-44.169733,-159.69105)">
    <path
       style="fill:none;stroke:#1f77b4;stroke-width:0.26169306;stroke-linecap:butt;stroke-linejoin:miter;stroke-miterlimit:4;stroke-dasharray:none;stroke-opacity:1;marker-start:url(#Arrow1Lstart);marker-end:url(#Arrow1Lend)"
       d="m 120.6775,261.45716 27.72189,-7.42805 -7.52872,-28.09758"
       id="path3741"
       inkscape:connector-curvature="0" />
    <circle
       style="stroke-width:0.26169306;stroke-miterlimit:4;stroke-dasharray:none;stroke:#1f77b4;stroke-opacity:1;fill:#1f77b4;fill-opacity:1"
       id="path4982"
       cx="72.146935"
       cy="188.49213"
       r="1.979507" />
    <circle
       style="stroke:#1f77b4;stroke-width:0.26169306;stroke-miterlimit:4;stroke-dasharray:none;stroke-opacity:1;fill:#1f77b4;fill-opacity:1"
       id="path4984"
       cx="123.07796"
       cy="209.52374"
       r="1.8475399" />
    <g
       transform="matrix(0.62975932,0,0,0.62975932,11.195411,123.33763)"
       id="g5007"
       style="stroke:#1f77b4;stroke-opacity:1;fill:#1f77b4;fill-opacity:1">
      <g
         style="font-style:normal;font-variant:normal;font-weight:normal;font-stretch:normal;letter-spacing:normal;word-spacing:normal;text-anchor:start;fill:#1f77b4;fill-opacity:1;fill-rule:evenodd;stroke:#1f77b4;stroke-linecap:butt;stroke-linejoin:miter;stroke-miterlimit:10.43299961;stroke-dasharray:none;stroke-dashoffset:0;stroke-opacity:1"
         id="g5005"
         transform="matrix(0.3,0,0,-0.3,-52.5,222.75)"
         xml:space="preserve"
         stroke-miterlimit="10.433"
         font-style="normal"
         font-variant="normal"
         font-weight="normal"
         font-stretch="normal"
         font-size-adjust="none"
         letter-spacing="normal"
         word-spacing="normal"><path
           style="fill:#1f77b4;stroke-width:0;stroke:#1f77b4;stroke-opacity:1;fill-opacity:1"
           inkscape:connector-curvature="0"
           d="m 474.1,425.03 -0.09,0.17 -0.09,0.17 -0.09,0.16 -0.09,0.16 -0.1,0.16 -0.1,0.16 -0.11,0.15 -0.11,0.14 -0.11,0.15 -0.12,0.13 -0.12,0.14 -0.12,0.13 -0.13,0.12 -0.13,0.12 -0.14,0.11 -0.14,0.11 -0.14,0.11 -0.15,0.09 -0.15,0.1 -0.15,0.08 -0.16,0.08 -0.17,0.08 -0.17,0.06 -0.17,0.07 -0.17,0.05 -0.18,0.05 -0.19,0.04 -0.19,0.03 -0.19,0.03 -0.2,0.02 -0.2,0.01 h -0.21 l 0.05,-1.09 c 3.23,0 3.93,-4.08 3.93,-4.37 0,-0.32 -0.09,-0.61 -0.14,-0.86 l -2.5,-9.77 c -0.25,-0.89 -0.25,-0.98 -1,-1.84 -2.18,-2.74 -4.23,-3.53 -5.62,-3.53 -2.49,0 -3.19,2.73 -3.19,4.68 0,2.49 1.59,8.61 2.74,10.91 1.54,2.94 3.79,4.78 5.78,4.78 l -0.05,1.09 c -5.83,0 -12,-7.31 -12,-14.59 0,-4.69 2.73,-7.97 6.62,-7.97 0.99,0 3.49,0.21 6.47,3.74 0.41,-2.1 2.14,-3.74 4.53,-3.74 1.75,0 2.9,1.14 3.69,2.74 0.85,1.79 1.5,4.84 1.5,4.93 0,0.5 -0.45,0.5 -0.59,0.5 -0.5,0 -0.55,-0.2 -0.7,-0.9 -0.85,-3.24 -1.75,-6.17 -3.79,-6.17 -1.34,0 -1.5,1.29 -1.5,2.29 0,1.1 0.1,1.49 0.64,3.69 0.57,2.09 0.66,2.59 1.11,4.48 l 1.79,6.97 c 0.35,1.39 0.35,1.5 0.35,1.69 0,0.86 -0.6,1.36 -1.45,1.36 -1.19,0 -1.94,-1.11 -2.09,-2.2 z"
           id="path5003" /></g>    </g>
    <g
       transform="matrix(0.98752107,0,0,0.98752107,60.95483,93.120483)"
       id="g5055"
       style="stroke:#1f77b4;stroke-opacity:1;fill:#1f77b4;fill-opacity:1">
      <g
         style="font-style:normal;font-variant:normal;font-weight:normal;font-stretch:normal;letter-spacing:normal;word-spacing:normal;text-anchor:start;fill:#1f77b4;fill-opacity:1;fill-rule:evenodd;stroke:#1f77b4;stroke-linecap:butt;stroke-linejoin:miter;stroke-miterlimit:10.43299961;stroke-dasharray:none;stroke-dashoffset:0;stroke-opacity:1"
         word-spacing="normal"
         letter-spacing="normal"
         font-size-adjust="none"
         font-stretch="normal"
         font-weight="normal"
         font-variant="normal"
         font-style="normal"
         stroke-miterlimit="10.433"
         xml:space="preserve"
         transform="matrix(0.3,0,0,-0.3,-52.5,222.75)"
         id="g5053"><path
           style="fill:#1f77b4;stroke-width:0;stroke:#1f77b4;stroke-opacity:1;fill-opacity:1"
           inkscape:connector-curvature="0"
           id="path5051"
           d="m 400.66708,378.66341 v 0 0.006 0 0.006 l -0.006,0.0127 v 0.006 0.0128 0.0128 0.0128 l -0.006,0.0128 v 0.0127 l -0.006,0.0127 -0.006,0.0128 -0.006,0.0191 -0.006,0.0127 -0.006,0.0191 -0.006,0.0127 -0.0127,0.0191 -0.0128,0.0128 -0.0127,0.0127 -0.0128,0.0191 -0.006,0.006 -0.0128,0.006 -0.006,0.006 -0.006,0.006 -0.0128,0.006 -0.006,0.006 -0.0128,0.006 -0.006,0.006 -0.0128,0.006 -0.0128,0.006 h -0.0128 l -0.0128,0.006 -0.0128,0.006 h -0.0128 l -0.0127,0.006 -0.0128,0.006 h -0.0191 -0.0128 l -0.0191,0.006 h -0.0127 -0.0191 l -0.0191,0.006 h -0.0191 -0.0127 c -0.73975,0 -3.05467,-0.26147 -3.87732,-0.31886 -0.26146,-0.0319 -0.61221,-0.0638 -0.61221,-0.63772 0,-0.38263 0.29335,-0.38263 0.77164,-0.38263 1.52414,0 1.58154,-0.21682 1.58154,-0.53568 0,-0.22958 -0.28698,-1.30732 -0.4464,-1.97055 l -2.60189,-10.35653 c -0.37625,-1.59429 -0.51018,-2.10447 -0.51018,-3.20772 0,-3.0164 1.68358,-4.99332 4.03676,-4.99332 v 0.70149 c -1.08412,0 -2.12998,0.85454 -2.12998,3.20771 0,0.60584 0,1.20529 0.5038,3.20772 l 0.70149,2.92713 c 0.19131,0.70148 0.19131,0.75888 0.47828,1.10962 1.55603,2.05983 2.9909,2.53812 3.81355,2.53812 1.14789,0 2.00244,-0.94382 2.00244,-2.9909 0,-1.86851 -1.05224,-5.51625 -1.61981,-6.73429 -1.04585,-2.1236 -2.5126,-3.26511 -3.74977,-3.26511 v -0.70149 c 3.74977,0 7.6526,4.73186 7.6526,9.31067 0,2.88886 -1.68357,5.07623 -4.22169,5.07623 -1.45399,0 -2.76131,-0.91194 -3.71789,-1.9004 z" /></g>    </g>
    <g
       transform="matrix(0.62975932,0,0,0.62975932,95.00727,196.98857)"
       id="g5109"
       style="stroke:#1f77b4;stroke-opacity:1;fill:#1f77b4;fill-opacity:1">
      <g
         style="font-style:normal;font-variant:normal;font-weight:normal;font-stretch:normal;letter-spacing:normal;word-spacing:normal;text-anchor:start;fill:#1f77b4;fill-opacity:1;fill-rule:evenodd;stroke:#1f77b4;stroke-linecap:butt;stroke-linejoin:miter;stroke-miterlimit:10.43299961;stroke-dasharray:none;stroke-dashoffset:0;stroke-opacity:1"
         id="g5107"
         transform="matrix(0.3,0,0,-0.3,-52.5,222.75)"
         xml:space="preserve"
         stroke-miterlimit="10.433"
         font-style="normal"
         font-variant="normal"
         font-weight="normal"
         font-stretch="normal"
         font-size-adjust="none"
         letter-spacing="normal"
         word-spacing="normal"><path
           style="fill:#1f77b4;stroke-width:0;stroke:#1f77b4;stroke-opacity:1;fill-opacity:1"
           inkscape:connector-curvature="0"
           d="m 475.25,425.14 h -0.14 -0.15 l -0.15,-0.01 h -0.14 l -0.14,-0.01 -0.14,-0.02 -0.07,-0.01 -0.07,-0.01 -0.06,-0.02 -0.07,-0.01 -0.07,-0.02 -0.07,-0.02 -0.07,-0.02 -0.06,-0.02 -0.07,-0.03 -0.07,-0.03 -0.06,-0.03 -0.07,-0.04 -0.07,-0.04 -0.06,-0.04 -0.07,-0.05 -0.07,-0.04 -0.06,-0.06 -0.07,-0.05 -0.06,-0.06 -0.07,-0.07 c -0.8,-0.75 -0.89,-1.59 -0.89,-1.93 0,-1.21 0.89,-1.75 1.84,-1.75 1.44,0 2.8,1.2 2.8,3.18 0,2.44 -2.34,4.28 -5.89,4.28 -6.72,0 -13.34,-7.12 -13.34,-14.14 0,-4.48 2.89,-8.42 8.06,-8.42 7.12,0 11.31,5.28 11.31,5.88 0,0.29 -0.3,0.65 -0.59,0.65 -0.25,0 -0.35,-0.11 -0.66,-0.5 -3.94,-4.93 -9.36,-4.93 -9.95,-4.93 -3.14,0 -4.49,2.43 -4.49,5.43 0,2.03 0.99,6.88 2.69,9.96 1.55,2.84 4.28,4.98 7.02,4.98 1.7,0 3.59,-0.64 4.29,-1.98 z"
           id="path5105" /></g>    </g>
    <path
       sodipodi:nodetypes="cc"
       inkscape:connector-curvature="0"
       id="path5139"
       d="m 123.67703,211.8272 24.50006,42.67551"
       style="fill:#ff7f0e;fill-opacity:1;stroke:#ff7f0e;stroke-width:0.26128158px;stroke-linecap:butt;stroke-linejoin:miter;stroke-opacity:1;marker-start:url(#marker5221)" />
    <path
       style="fill:none;stroke:#1f77b4;stroke-width:0.26169306;stroke-linecap:butt;stroke-linejoin:miter;stroke-miterlimit:4;stroke-dasharray:none;stroke-opacity:1;marker-start:url(#Arrow1Lstart-3);marker-end:url(#Arrow1Lend-7)"
       d="m 44.660463,195.70741 27.7219,-7.42805 -7.52872,-28.09758"
       id="path3741-3"
       inkscape:connector-curvature="0" />
    <path
       style="fill:none;stroke:#1f77b4;stroke-width:0.26169306;stroke-linecap:butt;stroke-linejoin:miter;stroke-miterlimit:4;stroke-dasharray:none;stroke-opacity:1;marker-start:url(#Arrow1Lstart-3-5);marker-end:url(#Arrow1Lend-7-2)"
       d="m 94.451062,207.02218 28.590608,2.50136 2.53524,-28.97806"
       id="path3741-3-1"
       inkscape:connector-curvature="0" />
    <circle
       style="stroke-width:0.26169306;stroke-miterlimit:4;stroke-dasharray:none;stroke:#1f77b4;stroke-opacity:1;fill:#1f77b4;fill-opacity:1"
       id="path4984-2"
       cx="147.97768"
       cy="253.91071"
       r="1.8475399" />
    <path
       sodipodi:nodetypes="cc"
       inkscape:connector-curvature="0"
       id="path5139-9"
       d="m 74.187157,189.48212 46.800653,18.67402"
       style="fill:#ff7f0e;fill-opacity:1;stroke:#ff7f0e;stroke-width:0.26128158px;stroke-linecap:butt;stroke-linejoin:miter;stroke-opacity:1;marker-start:url(#marker5221-7)" />
    <path
       sodipodi:nodetypes="cc"
       inkscape:connector-curvature="0"
       id="path5139-9-0"
       d="m 74.139897,190.55643 71.936063,62.33028"
       style="fill:#2ca02c;fill-opacity:1;stroke:#2ca02c;stroke-width:0.26128158px;stroke-linecap:butt;stroke-linejoin:miter;stroke-opacity:1;marker-start:url(#marker5221-7-3)" />
    <g
       transform="matrix(0.63771735,0,0,0.63771735,40.514538,129.84466)"
       id="g4043"
       style="fill:#ff7f0e;stroke:#ff7f0e;stroke-opacity:1;fill-opacity:1">
      <g
         style="font-style:normal;font-variant:normal;font-weight:normal;font-stretch:normal;letter-spacing:normal;word-spacing:normal;text-anchor:start;fill:#ff7f0e;fill-opacity:1;fill-rule:evenodd;stroke:#ff7f0e;stroke-linecap:butt;stroke-linejoin:miter;stroke-miterlimit:10.43299961;stroke-dasharray:none;stroke-dashoffset:0;stroke-opacity:1"
         word-spacing="normal"
         letter-spacing="normal"
         font-size-adjust="none"
         font-stretch="normal"
         font-weight="normal"
         font-variant="normal"
         font-style="normal"
         stroke-miterlimit="10.433"
         xml:space="preserve"
         transform="matrix(0.3,0,0,-0.3,-52.5,222.75)"
         id="g4041"><path
           style="fill:#ff7f0e;stroke-width:0;stroke:#ff7f0e;stroke-opacity:1;fill-opacity:1"
           inkscape:connector-curvature="0"
           id="path4031"
           d="m 465.63,423 v 5.62 l -8.27,-0.41 v -2.34 c 3.1,0 3.44,0 3.44,-1.94 v -15.39 h -3.44 v -2.34 c 1.75,0.05 3.99,0.16 6.28,0.16 1.9,0 5.08,0 6.88,-0.16 v 2.34 h -4.34 v 8.72 c 0,3.49 1.25,9.56 6.23,9.56 -0.05,-0.04 -0.95,-0.84 -0.95,-2.29 0,-2.03 1.59,-3.03 3.04,-3.03 1.44,0 3.04,1.04 3.04,3.03 0,2.64 -2.69,4.09 -5.29,4.09 -3.48,0 -5.46,-2.5 -6.62,-5.62 z" /><path
           style="fill:#ff7f0e;stroke-width:0;stroke:#ff7f0e;stroke-opacity:1;fill-opacity:1"
           inkscape:connector-curvature="0"
           id="path4033"
           d="m 488.36,447.34 v 0 l 0.01,0.01 v 0 0.01 0 0.01 h 0.01 v 0.01 0.01 0 l 0.01,0.02 v 0.02 l 0.01,0.02 v 0.02 l 0.01,0.02 0.01,0.02 v 0.02 l 0.01,0.02 v 0.03 l 0.02,0.04 0.01,0.05 v 0.02 l 0.01,0.03 v 0.02 l 0.01,0.02 v 0.02 l 0.01,0.02 v 0.01 0.02 l 0.01,0.01 v 0 0.01 0.01 0 0.01 0 0.01 0 0 0.01 0 c 0,0.18 -0.14,0.5 -0.56,0.5 -0.7,0 -3.59,-0.28 -4.45,-0.36 -0.28,-0.03 -0.78,-0.07 -0.78,-0.8 0,-0.48 0.5,-0.48 0.9,-0.48 1.68,0 1.68,-0.25 1.68,-0.54 0,-0.23 -0.35,-1.62 -0.55,-2.43 l -0.8,-3.21 c -0.33,-1.18 -2.23,-8.81 -2.31,-9.26 -0.17,-0.85 -0.17,-1.3 -0.17,-1.7 0,-3.54 2.23,-5.75 5.12,-5.75 l 0.03,0.96 c -1.7,0 -2.67,1.5 -2.67,3.57 0,1.28 0.31,2.47 1.28,6.4 0.21,0.66 0.21,0.74 0.88,1.5 1.33,1.53 2.89,2.3 4.14,2.3 1.36,0 2.55,-1.02 2.55,-3.38 0,-1.43 -0.77,-4.98 -1.82,-7.01 -0.84,-1.7 -2.58,-3.38 -4.36,-3.38 v 0 l -0.03,-0.96 c 4.36,0 8.99,4.73 8.99,9.89 0,4.07 -2.82,5.81 -5.22,5.81 -1.81,0 -3.35,-1 -4.39,-1.91 z" /><path
           style="fill:#ff7f0e;stroke-width:0;stroke:#ff7f0e;stroke-opacity:1;fill-opacity:1"
           inkscape:connector-curvature="0"
           id="path4035"
           d="m 493.86,403.43 -0.07,0.11 -0.07,0.1 -0.08,0.11 -0.07,0.1 -0.08,0.1 -0.09,0.1 -0.08,0.09 -0.09,0.09 -0.09,0.1 -0.1,0.08 -0.1,0.09 -0.1,0.08 -0.1,0.08 -0.1,0.08 -0.11,0.07 -0.11,0.07 -0.12,0.07 -0.11,0.07 -0.12,0.06 -0.12,0.05 -0.13,0.06 -0.12,0.05 -0.13,0.04 -0.14,0.04 -0.13,0.04 -0.14,0.03 -0.14,0.03 -0.15,0.02 -0.14,0.02 -0.15,0.01 -0.15,0.01 h -0.16 v -0.97 c 2.44,0 3.11,-2.64 3.11,-3.03 0,-0.14 -0.08,-0.39 -0.11,-0.48 l -1.64,-6.52 c -0.24,-0.98 -1,-1.67 -1.77,-2.34 -0.31,-0.27 -1.72,-1.39 -3.22,-1.39 -1.28,0 -2.53,0.9 -2.53,3.37 0,1.86 1,5.69 1.82,7.08 1.59,2.8 3.37,3.31 4.34,3.31 v 0.97 c -4.45,0 -8.98,-4.91 -8.98,-9.92 0,-3.38 2.26,-5.78 5.26,-5.78 1.88,0 3.55,1.08 4.94,2.43 0.67,-2.09 2.69,-2.43 3.59,-2.43 1.25,0 2.13,0.76 2.75,1.84 0.77,1.36 1.22,3.34 1.22,3.49 0,0.45 -0.45,0.45 -0.55,0.45 -0.5,0 -0.53,-0.14 -0.76,-1.08 -0.42,-1.67 -1.1,-3.73 -2.55,-3.73 -0.9,0 -1.15,0.76 -1.15,1.7 0,0.59 0.28,1.86 0.53,2.76 0.23,0.94 0.59,2.36 0.76,3.13 l 0.69,2.66 c 0.22,0.9 0.62,2.54 0.62,2.71 0,0.77 -0.62,1.11 -1.17,1.11 -0.59,0 -1.4,-0.42 -1.61,-1.39 z" /><path
           style="fill:#ff7f0e;stroke-width:0;stroke:#ff7f0e;stroke-opacity:1;fill-opacity:1"
           inkscape:connector-curvature="0"
           id="path4037"
           d="m 518.21,414.71 0.01,0.03 0.01,0.02 0.01,0.02 0.01,0.02 0.01,0.01 0.01,0.02 0.01,0.02 v 0.02 l 0.01,0.02 0.01,0.01 0.01,0.03 0.02,0.03 0.01,0.03 0.01,0.03 0.01,0.02 0.01,0.03 0.01,0.02 v 0.02 l 0.01,0.02 0.01,0.02 v 0.02 l 0.01,0.02 v 0.01 l 0.01,0.02 v 0.01 0.02 0.01 l 0.01,0.01 v 0.02 0.02 0.03 0.02 0.03 c 0,0.54 -0.45,0.87 -0.84,0.87 -0.6,0 -0.77,-0.42 -0.94,-0.87 l -13,-32.44 c -0.2,-0.45 -0.2,-0.53 -0.2,-0.67 0,-0.55 0.45,-0.88 0.82,-0.88 0.6,0 0.77,0.42 0.94,0.88 z" /><path
           style="fill:#ff7f0e;stroke-width:0;stroke:#ff7f0e;stroke-opacity:1;fill-opacity:1"
           inkscape:connector-curvature="0"
           id="path4039"
           d="m 530.36,413.26 v 0.01 0 0 l 0.01,0.01 v 0 0.01 0.01 0 l 0.01,0.01 v 0.01 0.01 l 0.01,0.02 v 0.02 l 0.01,0.02 0.01,0.02 v 0.02 l 0.01,0.02 v 0.03 l 0.01,0.02 0.01,0.05 0.01,0.04 0.01,0.03 v 0.02 l 0.01,0.02 v 0.02 l 0.01,0.02 v 0.02 l 0.01,0.02 v 0.01 0.01 0.01 0 l 0.01,0.01 v 0 0.01 0 0.01 0 0 0.01 0 c 0,0.19 -0.14,0.5 -0.56,0.5 -0.71,0 -3.6,-0.28 -4.46,-0.36 -0.28,-0.03 -0.78,-0.06 -0.78,-0.8 0,-0.48 0.5,-0.48 0.91,-0.48 1.67,0 1.67,-0.25 1.67,-0.53 0,-0.24 -0.34,-1.63 -0.55,-2.44 l -0.79,-3.2 c -0.33,-1.19 -2.24,-8.82 -2.32,-9.27 -0.17,-0.84 -0.17,-1.3 -0.17,-1.7 0,-3.53 2.24,-5.75 5.13,-5.75 l 0.03,0.97 c -1.7,0 -2.67,1.5 -2.67,3.56 0,1.28 0.31,2.47 1.28,6.4 0.2,0.66 0.2,0.74 0.87,1.5 1.33,1.54 2.89,2.3 4.14,2.3 1.36,0 2.55,-1.01 2.55,-3.37 0,-1.44 -0.76,-4.99 -1.81,-7.02 -0.85,-1.7 -2.58,-3.37 -4.36,-3.37 v 0 l -0.03,-0.97 c 4.36,0 8.98,4.73 8.98,9.89 0,4.08 -2.81,5.81 -5.22,5.81 -1.81,0 -3.34,-1 -4.39,-1.91 z" /></g>    </g>
    <g
       transform="matrix(0.63771735,0,0,0.63771735,40.714311,165.70175)"
       id="g4165"
       style="fill:#2ca02c;fill-opacity:1;stroke:#2ca02c;stroke-opacity:1">
      <g
         style="font-style:normal;font-variant:normal;font-weight:normal;font-stretch:normal;letter-spacing:normal;word-spacing:normal;text-anchor:start;fill:#2ca02c;fill-opacity:1;fill-rule:evenodd;stroke:#2ca02c;stroke-linecap:butt;stroke-linejoin:miter;stroke-miterlimit:10.43299961;stroke-dasharray:none;stroke-dashoffset:0;stroke-opacity:1"
         id="g4163"
         transform="matrix(0.3,0,0,-0.3,-52.5,222.75)"
         xml:space="preserve"
         stroke-miterlimit="10.433"
         font-style="normal"
         font-variant="normal"
         font-weight="normal"
         font-stretch="normal"
         font-size-adjust="none"
         letter-spacing="normal"
         word-spacing="normal"><path
           style="fill:#2ca02c;fill-opacity:1;stroke:#2ca02c;stroke-width:0;stroke-opacity:1"
           inkscape:connector-curvature="0"
           d="m 465.63,423 v 5.62 l -8.27,-0.41 v -2.34 c 3.1,0 3.44,0 3.44,-1.94 v -15.39 h -3.44 v -2.34 c 1.75,0.05 3.99,0.16 6.28,0.16 1.9,0 5.08,0 6.88,-0.16 v 2.34 h -4.34 v 8.72 c 0,3.49 1.25,9.56 6.23,9.56 -0.05,-0.04 -0.95,-0.84 -0.95,-2.29 0,-2.03 1.59,-3.03 3.04,-3.03 1.44,0 3.04,1.04 3.04,3.03 0,2.64 -2.69,4.09 -5.29,4.09 -3.48,0 -5.46,-2.5 -6.62,-5.62 z"
           id="path4153" /><path
           style="fill:#2ca02c;fill-opacity:1;stroke:#2ca02c;stroke-width:0;stroke-opacity:1"
           inkscape:connector-curvature="0"
           d="m 494.43,437.54 -0.12,-0.02 -0.11,-0.02 -0.11,-0.03 -0.1,-0.04 -0.1,-0.04 -0.1,-0.04 -0.09,-0.04 -0.09,-0.05 -0.08,-0.05 -0.08,-0.06 -0.07,-0.05 -0.07,-0.06 -0.07,-0.06 -0.06,-0.07 -0.06,-0.06 -0.06,-0.07 -0.05,-0.07 -0.05,-0.07 -0.04,-0.08 -0.05,-0.07 -0.03,-0.07 -0.04,-0.08 -0.03,-0.07 -0.02,-0.08 -0.03,-0.08 -0.02,-0.07 -0.02,-0.08 -0.01,-0.07 -0.01,-0.08 -0.01,-0.07 v -0.08 l -0.01,-0.07 c 0,-0.94 0.74,-1.28 1.36,-1.28 0.77,0 1.99,0.55 1.99,2.22 0,2.37 -2.72,3.03 -4.6,3.03 -5.23,0 -10.07,-4.8 -10.07,-9.64 0,-3 2.09,-6.06 6.45,-6.06 5.89,0 8.64,3.43 8.64,3.93 0,0.21 -0.31,0.6 -0.59,0.6 -0.21,0 -0.28,-0.08 -0.57,-0.36 -2.71,-3.21 -6.79,-3.21 -7.42,-3.21 -2.5,0 -3.62,1.71 -3.62,3.88 0,1 0.5,4.8 2.31,7.2 1.31,1.72 3.12,2.69 4.87,2.69 0.49,0 2.16,-0.06 3.04,-1.05 z"
           id="path4155" /><path
           style="fill:#2ca02c;fill-opacity:1;stroke:#2ca02c;stroke-width:0;stroke-opacity:1"
           inkscape:connector-curvature="0"
           d="m 493.86,403.43 -0.07,0.11 -0.07,0.1 -0.08,0.11 -0.07,0.1 -0.08,0.1 -0.09,0.1 -0.08,0.09 -0.09,0.09 -0.09,0.1 -0.1,0.08 -0.1,0.09 -0.1,0.08 -0.1,0.08 -0.1,0.08 -0.11,0.07 -0.11,0.07 -0.12,0.07 -0.11,0.07 -0.12,0.06 -0.12,0.05 -0.13,0.06 -0.12,0.05 -0.13,0.04 -0.14,0.04 -0.13,0.04 -0.14,0.03 -0.14,0.03 -0.15,0.02 -0.14,0.02 -0.15,0.01 -0.15,0.01 h -0.16 v -0.97 c 2.44,0 3.11,-2.64 3.11,-3.03 0,-0.14 -0.08,-0.39 -0.11,-0.48 l -1.64,-6.52 c -0.24,-0.98 -1,-1.67 -1.77,-2.34 -0.31,-0.27 -1.72,-1.39 -3.22,-1.39 -1.28,0 -2.53,0.9 -2.53,3.37 0,1.86 1,5.69 1.82,7.08 1.59,2.8 3.37,3.31 4.34,3.31 v 0.97 c -4.45,0 -8.98,-4.91 -8.98,-9.92 0,-3.38 2.26,-5.78 5.26,-5.78 1.88,0 3.55,1.08 4.94,2.43 0.67,-2.09 2.69,-2.43 3.59,-2.43 1.25,0 2.13,0.76 2.75,1.84 0.77,1.36 1.22,3.34 1.22,3.49 0,0.45 -0.45,0.45 -0.55,0.45 -0.5,0 -0.53,-0.14 -0.76,-1.08 -0.42,-1.67 -1.1,-3.73 -2.55,-3.73 -0.9,0 -1.15,0.76 -1.15,1.7 0,0.59 0.28,1.86 0.53,2.76 0.23,0.94 0.59,2.36 0.76,3.13 l 0.69,2.66 c 0.22,0.9 0.62,2.54 0.62,2.71 0,0.77 -0.62,1.11 -1.17,1.11 -0.59,0 -1.4,-0.42 -1.61,-1.39 z"
           id="path4157" /><path
           style="fill:#2ca02c;fill-opacity:1;stroke:#2ca02c;stroke-width:0;stroke-opacity:1"
           inkscape:connector-curvature="0"
           d="m 518.21,414.71 0.01,0.03 0.01,0.02 0.01,0.02 0.01,0.02 0.01,0.01 0.01,0.02 0.01,0.02 v 0.02 l 0.01,0.02 0.01,0.01 0.01,0.03 0.02,0.03 0.01,0.03 0.01,0.03 0.01,0.02 0.01,0.03 0.01,0.02 v 0.02 l 0.01,0.02 0.01,0.02 v 0.02 l 0.01,0.02 v 0.01 l 0.01,0.02 v 0.01 0.02 0.01 l 0.01,0.01 v 0.02 0.02 0.03 0.02 0.03 c 0,0.54 -0.45,0.87 -0.84,0.87 -0.6,0 -0.77,-0.42 -0.94,-0.87 l -13,-32.44 c -0.2,-0.45 -0.2,-0.53 -0.2,-0.67 0,-0.55 0.45,-0.88 0.82,-0.88 0.6,0 0.77,0.42 0.94,0.88 z"
           id="path4159" /><path
           style="fill:#2ca02c;fill-opacity:1;stroke:#2ca02c;stroke-width:0;stroke-opacity:1"
           inkscape:connector-curvature="0"
           d="m 536.42,403.46 -0.11,-0.02 -0.12,-0.02 -0.1,-0.03 -0.11,-0.04 -0.1,-0.03 -0.09,-0.05 -0.09,-0.04 -0.09,-0.05 -0.08,-0.05 -0.08,-0.05 -0.08,-0.06 -0.07,-0.06 -0.06,-0.06 -0.07,-0.07 -0.06,-0.06 -0.05,-0.07 -0.06,-0.07 -0.04,-0.07 -0.05,-0.07 -0.04,-0.08 -0.04,-0.07 -0.03,-0.08 -0.03,-0.07 -0.03,-0.08 -0.02,-0.07 -0.02,-0.08 -0.02,-0.08 -0.01,-0.07 -0.02,-0.08 v -0.07 l -0.01,-0.08 v -0.07 c 0,-0.94 0.74,-1.28 1.36,-1.28 0.77,0 1.98,0.55 1.98,2.22 0,2.37 -2.71,3.03 -4.59,3.03 -5.23,0 -10.08,-4.8 -10.08,-9.64 0,-3 2.1,-6.06 6.46,-6.06 5.89,0 8.64,3.43 8.64,3.93 0,0.21 -0.32,0.6 -0.6,0.6 -0.2,0 -0.28,-0.08 -0.56,-0.36 -2.72,-3.2 -6.8,-3.2 -7.42,-3.2 -2.5,0 -3.63,1.7 -3.63,3.87 0,1 0.5,4.8 2.32,7.2 1.31,1.72 3.12,2.69 4.87,2.69 0.49,0 2.16,-0.06 3.03,-1.05 z"
           id="path4161" /></g>    </g>
    <g
       id="g4293"
       transform="matrix(0.63771735,0,0,0.63771735,76.911403,152.97343)"
       style="fill:#ff7f0e;stroke:#ff7f0e;stroke-opacity:1;fill-opacity:1">
      <g
         word-spacing="normal"
         letter-spacing="normal"
         font-size-adjust="none"
         font-stretch="normal"
         font-weight="normal"
         font-variant="normal"
         font-style="normal"
         stroke-miterlimit="10.433"
         xml:space="preserve"
         transform="matrix(0.3,0,0,-0.3,-52.5,222.75)"
         id="content"
         style="font-style:normal;font-variant:normal;font-weight:normal;font-stretch:normal;letter-spacing:normal;word-spacing:normal;text-anchor:start;fill:#ff7f0e;fill-opacity:1;fill-rule:evenodd;stroke:#ff7f0e;stroke-linecap:butt;stroke-linejoin:miter;stroke-miterlimit:10.43299961;stroke-dasharray:none;stroke-dashoffset:0;stroke-opacity:1"><path
           id="path4282"
           d="m 465.63,423 v 5.62 l -8.27,-0.41 v -2.34 c 3.1,0 3.44,0 3.44,-1.94 v -15.39 h -3.44 v -2.34 c 1.75,0.05 3.99,0.16 6.28,0.16 1.9,0 5.08,0 6.88,-0.16 v 2.34 h -4.34 v 8.72 c 0,3.49 1.25,9.56 6.23,9.56 -0.05,-0.04 -0.95,-0.84 -0.95,-2.29 0,-2.03 1.59,-3.03 3.04,-3.03 1.44,0 3.04,1.04 3.04,3.03 0,2.64 -2.69,4.09 -5.29,4.09 -3.48,0 -5.46,-2.5 -6.62,-5.62 z"
           inkscape:connector-curvature="0"
           style="fill:#ff7f0e;stroke-width:0;stroke:#ff7f0e;stroke-opacity:1;fill-opacity:1" /><path
           id="path4284"
           d="m 494.43,437.54 -0.12,-0.02 -0.11,-0.02 -0.11,-0.03 -0.1,-0.04 -0.1,-0.04 -0.1,-0.04 -0.09,-0.04 -0.09,-0.05 -0.08,-0.05 -0.08,-0.06 -0.07,-0.05 -0.07,-0.06 -0.07,-0.06 -0.06,-0.07 -0.06,-0.06 -0.06,-0.07 -0.05,-0.07 -0.05,-0.07 -0.04,-0.08 -0.05,-0.07 -0.03,-0.07 -0.04,-0.08 -0.03,-0.07 -0.02,-0.08 -0.03,-0.08 -0.02,-0.07 -0.02,-0.08 -0.01,-0.07 -0.01,-0.08 -0.01,-0.07 v -0.08 l -0.01,-0.07 c 0,-0.94 0.74,-1.28 1.36,-1.28 0.77,0 1.99,0.55 1.99,2.22 0,2.37 -2.72,3.03 -4.6,3.03 -5.23,0 -10.07,-4.8 -10.07,-9.64 0,-3 2.09,-6.06 6.45,-6.06 5.89,0 8.64,3.43 8.64,3.93 0,0.21 -0.31,0.6 -0.59,0.6 -0.21,0 -0.28,-0.08 -0.57,-0.36 -2.71,-3.21 -6.79,-3.21 -7.42,-3.21 -2.5,0 -3.62,1.71 -3.62,3.88 0,1 0.5,4.8 2.31,7.2 1.31,1.72 3.12,2.69 4.87,2.69 0.49,0 2.16,-0.06 3.04,-1.05 z"
           inkscape:connector-curvature="0"
           style="fill:#ff7f0e;stroke-width:0;stroke:#ff7f0e;stroke-opacity:1;fill-opacity:1" /><path
           id="path4286"
           d="m 488.36,413.26 v 0.01 h 0.01 v 0 0.01 0 0.01 l 0.01,0.01 v 0 0.01 0.01 l 0.01,0.01 v 0.02 l 0.01,0.02 v 0.02 l 0.01,0.02 0.01,0.02 v 0.02 l 0.01,0.03 v 0.02 l 0.02,0.05 0.01,0.04 v 0.03 l 0.01,0.02 v 0.02 l 0.01,0.02 v 0.02 l 0.01,0.02 v 0.02 0.01 l 0.01,0.01 v 0.01 0 0.01 0 0.01 0 0.01 0 0 0.01 0 c 0,0.19 -0.14,0.5 -0.56,0.5 -0.7,0 -3.59,-0.28 -4.45,-0.36 -0.28,-0.03 -0.78,-0.06 -0.78,-0.8 0,-0.48 0.5,-0.48 0.9,-0.48 1.68,0 1.68,-0.25 1.68,-0.53 0,-0.24 -0.35,-1.63 -0.55,-2.44 l -0.8,-3.2 c -0.33,-1.19 -2.23,-8.82 -2.31,-9.27 -0.17,-0.84 -0.17,-1.3 -0.17,-1.7 0,-3.53 2.23,-5.75 5.12,-5.75 l 0.03,0.97 c -1.7,0 -2.67,1.5 -2.67,3.56 0,1.28 0.31,2.47 1.28,6.4 0.21,0.66 0.21,0.74 0.88,1.5 1.33,1.54 2.89,2.3 4.14,2.3 1.36,0 2.55,-1.01 2.55,-3.37 0,-1.44 -0.77,-4.99 -1.82,-7.02 -0.84,-1.7 -2.58,-3.37 -4.36,-3.37 v 0 l -0.03,-0.97 c 4.36,0 8.99,4.73 8.99,9.89 0,4.08 -2.82,5.81 -5.22,5.81 -1.81,0 -3.35,-1 -4.39,-1.91 z"
           inkscape:connector-curvature="0"
           style="fill:#ff7f0e;stroke-width:0;stroke:#ff7f0e;stroke-opacity:1;fill-opacity:1" /><path
           id="path4288"
           d="m 514.13,414.71 0.01,0.03 0.01,0.02 0.01,0.02 0.01,0.02 0.01,0.01 0.01,0.02 0.01,0.02 0.01,0.02 v 0.02 l 0.01,0.01 0.01,0.03 0.02,0.03 0.01,0.03 0.01,0.03 0.01,0.02 0.01,0.03 0.01,0.02 0.01,0.02 v 0.02 l 0.01,0.02 v 0.02 l 0.01,0.02 v 0.01 l 0.01,0.02 v 0.01 0.02 l 0.01,0.01 v 0.01 0.02 0.02 0.03 0.02 0.03 c 0,0.54 -0.45,0.87 -0.84,0.87 -0.6,0 -0.77,-0.42 -0.94,-0.87 l -13,-32.44 c -0.2,-0.45 -0.2,-0.53 -0.2,-0.67 0,-0.55 0.45,-0.88 0.83,-0.88 0.59,0 0.76,0.42 0.93,0.88 z"
           inkscape:connector-curvature="0"
           style="fill:#ff7f0e;stroke-width:0;stroke:#ff7f0e;stroke-opacity:1;fill-opacity:1" /><path
           id="path4290"
           d="m 532.34,403.46 -0.11,-0.02 -0.11,-0.02 -0.11,-0.03 -0.11,-0.04 -0.1,-0.03 -0.09,-0.05 -0.09,-0.04 -0.09,-0.05 -0.08,-0.05 -0.08,-0.05 -0.07,-0.06 -0.08,-0.06 -0.06,-0.06 -0.07,-0.07 -0.06,-0.06 -0.05,-0.07 -0.05,-0.07 -0.05,-0.07 -0.05,-0.07 -0.04,-0.08 -0.03,-0.07 -0.04,-0.08 -0.03,-0.07 -0.03,-0.08 -0.02,-0.07 -0.02,-0.08 -0.02,-0.08 -0.01,-0.07 -0.01,-0.08 -0.01,-0.07 -0.01,-0.08 v -0.07 c 0,-0.94 0.74,-1.28 1.36,-1.28 0.77,0 1.99,0.55 1.99,2.22 0,2.37 -2.72,3.03 -4.6,3.03 -5.23,0 -10.08,-4.8 -10.08,-9.64 0,-3 2.1,-6.06 6.46,-6.06 5.89,0 8.64,3.43 8.64,3.93 0,0.21 -0.31,0.6 -0.6,0.6 -0.2,0 -0.28,-0.08 -0.56,-0.36 -2.72,-3.2 -6.79,-3.2 -7.42,-3.2 -2.5,0 -3.63,1.7 -3.63,3.87 0,1 0.5,4.8 2.32,7.2 1.31,1.72 3.12,2.69 4.87,2.69 0.49,0 2.16,-0.06 3.03,-1.05 z"
           inkscape:connector-curvature="0"
           style="fill:#ff7f0e;stroke-width:0;stroke:#ff7f0e;stroke-opacity:1;fill-opacity:1" /></g>    </g>
  </g>
</svg>
